<svg width="93" height="72" viewBox="0 0 93 72" fill="none" xmlns="http://www.w3.org/2000/svg">
<path d="M93 12.0586C92.9805 9.09766 91.8047 6.32422 89.6953 4.25391L89.6055 4.16797C85.3242 -0.00781202 78.3242 0.101562 73.9531 4.43359V4.4375L73.5586 4.82812L73.0312 4.24609C68.6914 -0.070312 61.625 -0.0742188 57.3789 4.14453L57.1289 4.35547L57.0938 4.42578C55.957 5.60156 55.125 6.99219 54.6055 8.5H4.5C2.01562 8.5 0 10.5156 0 13V67C0 69.4844 2.01562 71.5 4.5 71.5H85.5C87.9844 71.5 90 69.4844 90 67V19.6719C91.9492 17.5977 93.0156 14.9102 93 12.0586ZM59.3867 6.37109L59.4141 6.34375C62.5938 3.21094 67.75 3.22266 70.8594 6.3125L71.4336 6.94922L69.4414 8.9375C68.8516 9.52344 68.8516 10.4727 69.4375 11.0586C69.7305 11.3516 70.1133 11.5 70.5 11.5C70.8828 11.5 71.2656 11.3516 71.5586 11.0625L76.0664 6.56641C79.2969 3.36328 84.457 3.27734 87.5664 6.36719L87.6523 6.45312C89.1523 7.96094 89.9883 9.95312 90 12.0781C90.0117 14.2344 89.1797 16.2656 87.6602 17.793L73.5273 31.8359L59.4492 17.8594L59.3789 17.7852C57.8438 16.2578 56.9961 14.2344 57 12.0781C57 9.92188 57.8477 7.89844 59.3867 6.37109ZM3 13C3 12.1719 3.67188 11.5 4.5 11.5H54.0273C54.0195 11.6914 54 11.8828 54 12.0742C54 14.9531 55.0938 17.6641 57.0898 19.7344L57.2109 19.9727L57.4414 20.0898L66.25 28.8359L46.7539 42.8789C45.7031 43.6445 44.2812 43.6445 43.2305 42.8789L3 13.7344V13ZM60.3477 42.582C60.457 42.668 60.5781 42.7383 60.7031 42.7891L87 58.8398V67C87 67.8281 86.3281 68.5 85.5 68.5H4.5C3.67188 68.5 3 67.8281 3 67V58.8398L29.3555 42.7734C30.1211 42.4609 30.4844 41.582 30.168 40.8164C29.8516 40.0508 28.9766 39.6836 28.2109 40C28.082 40.0547 27.9648 40.125 27.8516 40.2109L3 55.3281V17.5L41.4766 45.3086C43.5742 46.8281 46.4102 46.8281 48.5117 45.3086L68.4219 30.9922L71.582 34.1328C72.1172 34.6719 72.8203 34.9414 73.5312 34.9414C74.2227 34.9414 74.9102 34.6836 75.4414 34.168L87 22.6797V55.3281L62.2031 40.2266C61.5547 39.7109 60.6094 39.8242 60.0977 40.4766C59.5859 41.125 59.6953 42.0703 60.3477 42.582Z" fill="#c72f2c"/>
</svg>
